<?xml version="1.0" standalone="no"?>
<!DOCTYPE svg PUBLIC "-//W3C//DTD SVG 20010904//EN"
 "http://www.w3.org/TR/2001/REC-SVG-20010904/DTD/svg10.dtd">
<svg version="1.0" xmlns="http://www.w3.org/2000/svg"
 width="500.000000pt" height="500.000000pt" viewBox="0 0 500.000000 500.000000"
 preserveAspectRatio="xMidYMid meet">

<g transform="translate(0.000000,500.000000) scale(0.100000,-0.100000)"
fill="#000000" stroke="none">
<path d="M2290 4454 c-74 -42 -178 -99 -230 -128 -52 -29 -115 -64 -140 -78
-25 -14 -79 -43 -120 -65 -41 -23 -109 -60 -150 -83 -41 -23 -104 -58 -140
-77 -36 -20 -66 -37 -68 -38 -5 -5 265 -89 543 -170 88 -25 171 -50 185 -55
14 -5 126 -39 250 -76 124 -37 333 -99 465 -139 132 -40 312 -94 400 -120 88
-26 254 -76 370 -111 115 -35 213 -64 217 -64 5 0 -15 44 -43 98 -91 172 -203
386 -324 617 -71 136 -146 277 -151 284 -2 3 -436 134 -745 226 -64 19 -128
39 -143 45 -15 5 -30 10 -34 10 -4 -1 -68 -35 -142 -76z"/>
<path d="M1120 2203 c0 -1076 4 -1953 8 -1948 5 6 56 71 113 145 57 74 108
140 114 146 5 7 124 158 263 337 l252 325 0 1000 0 999 -47 61 c-71 88 -384
490 -502 643 -147 189 -194 249 -197 249 -2 0 -4 -881 -4 -1957z"/>
<path d="M3650 3017 c-80 -57 -201 -141 -270 -188 -69 -47 -172 -119 -230
-159 -58 -41 -145 -101 -195 -135 -94 -65 -175 -121 -336 -233 -53 -37 -132
-91 -175 -121 -44 -30 -119 -83 -169 -118 -49 -34 -132 -91 -183 -125 l-93
-63 58 -18 c32 -10 180 -51 328 -92 149 -41 355 -99 458 -129 l189 -54 76 53
c43 30 122 85 177 123 319 219 425 294 430 302 6 10 10 54 54 585 17 198 33
386 36 418 3 31 2 57 -2 56 -4 0 -73 -46 -153 -102z"/>
</g>
</svg>
